.
 
http://www.scenetime.com    -   SceneTime [ We been having it ] !!!


How come you press harder on a remote control when you know the battery is dead? so you better seed to get speed ;)

        Seed back for speed


...................................NFO:.................................................[pre][img]http://i824.photobucket.com/albums/zz161/akosipalos/janeeyrecover.png[/img]   
            
*******************************************************************************
             Jane.Eyre.2011.LiMiTED.480p.BRRip.XviD.AC3-PRESTiGE
*******************************************************************************

-------------------------------------------------------------------------------
                              General Information
-------------------------------------------------------------------------------

TiTLE............: Jane.Eyre.2011.LiMiTED.480p.BRRip.XviD.AC3-PRESTiGE

iMDB.............: http://www.imdb.com/title/tt1229822/

GENRE............: Drama | Romance 

LANGUAGE.........: English

FORMAT...........: AVi

SOURCE...........: 720p.BluRay.X264-AMIABLE MANY THANKS!!!

FiLE SiZE........: 1.80 GB

SAMPLE iNCLUDED..: YES

SUBS.............: English Subs (If needed)

DURATiON.........: 2h 00mn

ENCODED by.......: [b][color=maroon]akosipalos[/color][/b]



ViDEO iNFO:

ID                               : 0
Format                           : MPEG-4 Visual
Format profile                   : Advanced Simple@L5
Format settings, BVOP            : 2
Format settings, QPel            : No
Format settings, GMC             : No warppoints
Format settings, Matrix          : Default (H.263)
Codec ID                         : XVID
Codec ID/Hint                    : XviD
Duration                         : 2h 0mn
Bit rate                         : 1 689 Kbps
Width                            : 720 pixels
Height                           : 384 pixels
Display aspect ratio             : 1.875
Frame rate                       : 23.976 fps
Color space                      : YUV
Chroma subsampling               : 4:2:0
Bit depth                        : 8 bits
Scan type                        : Progressive
Compression mode                 : Lossy
Bits/(Pixel*Frame)               : 0.255
Stream size                      : 1.42 GiB (79%)
Writing library                  : XviD 1.2.1 (UTC 2008-12-04)


AUDiO iNFO:

ID                               : 1
Format                           : AC-3
Format/Info                      : Audio Coding 3
Mode extension                   : CM (complete main)
Codec ID                         : 2000
Duration                         : 2h 0mn
Bit rate mode                    : Constant
Bit rate                         : 448 Kbps
Channel(s)                       : 6 channels
Channel positions                : Front: L C R, Side: L R, LFE
Sampling rate                    : 48.0 KHz
Bit depth                        : 16 bits
Compression mode                 : Lossy
Stream size                      : 385 MiB (21%)
Alignment                        : Aligned on interleaves
Interleave, duration             : 64 ms (1.53 video frames)
Interleave, preload duration     : 192 ms
Title                            : T2_Audio - English


-------------------------------------------------------------------------------
                                 PLOT:
-------------------------------------------------------------------------------


After a bleak childhood, Jane Eyre goes out into the world to become a governess. As she lives happily in her new position at Thornfield Hall, she meets the dark, cold, and abrupt master of the house, Mr. Rochester. Jane and her employer grow close in friendship and she soon finds herself falling in love with him. Happiness seems to have found Jane at last, but could Mr. Rochester's terrible secret be about to destroy it forever? 


-------------------------------------------------------------------------------
                                 CAST:
-------------------------------------------------------------------------------


Michael Fassbender .... Edward Rochester
Mia Wasikowska .... Jane Eyre
Judi Dench .... Mrs. Fairfax
Jamie Bell .... St. John Rivers
Imogen Poots .... Blanche Ingram
Sally Hawkins .... Mrs. Reed
Tamzin Merchant .... Mary Rivers
Simon McBurney .... Brocklehurst
Jayne Wisener .... Bessie
Harry Lloyd .... Richard Mason


-------------------------------------------------------------------------------
                               SCREENS:
-------------------------------------------------------------------------------


[img]http://i824.photobucket.com/albums/zz161/akosipalos/j32.png[/img]

[img]http://i824.photobucket.com/albums/zz161/akosipalos/je1.png[/img]

[img]http://i824.photobucket.com/albums/zz161/akosipalos/je3.png[/img]

[img]http://i824.photobucket.com/albums/zz161/akosipalos/je4.png[/img]

[img]http://i824.photobucket.com/albums/zz161/akosipalos/je5.png[/img]



-------------------------------------------------------------------------------
                             Release Notes
-------------------------------------------------------------------------------

WE DONT RELEASE EVERYTHING TO OTHERS SITES YOU WANT MORE OF OUR STUFF COME FIND US AT .......

WE ARE LOOKING FOR SUPPLIERS BLURAY CAM R5 PRE RETAIL DVD GOT SOMETHING WE MIGHT LIKE WHEN YOU FIND US TELL US.......



ENCODER'S - ANYTHING AT ALL EMAIL US AT..... prestige@hushmail.me

** ** ** ** ** ** ** ** **

PRESTiGE is the level of respect at which one is regarded by others....RIzE Above Or Sink Below...


-------------------------------------------------------------------------------
                                 GREETZ:
-------------------------------------------------------------------------------


[b]| Twisted | Bigguy | CTFX | Whitestag13 | akosipalos | SeLiNa | RiZAL Team RG | and To All Encoders Past And Present...[/b]


[img]http://i824.photobucket.com/albums/zz161/akosipalos/PRESTiGE.png[/img]


[b][color=red]PRESTiGE[/color] is the level of respect at which one is regarded by others....RIzE Above Or Sink Below...[/b]


-------------------------------------------------------------------------------
Generated with Cool NFO Creator - http://fly.to/coolbeans
-------------------------------------------------------------------------------
[/pre]